<?xml version="1.0" encoding="utf-8"?>
<!-- Generator: Adobe Illustrator 27.0.0, SVG Export Plug-In . SVG Version: 6.00 Build 0)  -->
<svg version="1.1" id="Layer_1" xmlns="http://www.w3.org/2000/svg" xmlns:xlink="http://www.w3.org/1999/xlink" x="0px" y="0px"
	 viewBox="0 0 512 512" style="enable-background:new 0 0 512 512;" xml:space="preserve">
<style type="text/css">
	.st0{fill:#FFFFFF;}
</style>
<g>
	<polygon class="st0" points="341.26,229.28 424.03,204.91 480.76,204.91 478.24,288.1 458.49,311.21 414.37,321.71 384.12,319.19 
		360.59,288.94 338.74,246.08 322.35,249.03 317.73,282.14 305.97,321.71 290.42,339.78 256,348.18 209.75,354.91 196.72,349.87 
		182.02,335.58 156.81,276.76 161.01,256 187.9,243.98 267.31,229.7 307.23,227.6 323.61,231.38 	"/>
	<path d="M51.3,312.07c0-3-0.35-6.04,0.06-8.98c3.06-21.99,13.94-32.17,36.19-34c14.48-1.19,28.68-3.99,42.76-7.46
		c2.64-0.65,5.14-1.51,6.77-3.87c2.98-4.32,7.41-6.57,12.07-8.51c24.29-10.09,49.77-15.82,75.59-20.1
		c28.13-4.67,56.46-7.42,84.96-8.48c4.51-0.17,8.89-0.77,13.16-2.49c2.58-1.04,5.54-2.01,8.23-1.79c6.96,0.56,13.01-2.02,19.3-4.21
		c27.05-9.41,55.05-14.25,83.45-17.17c12.93-1.33,25.91-1.96,38.89-2.45c2.33-0.09,4.68-0.2,6.99-0.01
		c6.87,0.57,9.74,3.1,11.21,9.93c1.61,7.48,3.03,15.01,4.6,22.5c0.82,3.89-0.29,7.36-2.57,10.34c-2.69,3.53-3.31,7.4-3.43,11.69
		c-0.36,13.65-0.95,27.26-3.61,40.75c-2.49,12.61-9.37,21.35-20.84,26.89c-13.34,6.46-27.54,9.88-42.03,12.26
		c-10.86,1.79-21.74,3.09-32.79,1.2c-10.11-1.73-17.87-6.8-23.77-15.08c-9.59-13.45-17.87-27.7-26.07-42.01
		c-1.16-2.02-2.32-4.08-3.77-5.87c-3.48-4.3-6.89-3.77-8.75,1.49c-2.68,7.57-3.38,15.59-4.92,23.42
		c-1.76,8.98-3.42,17.99-5.87,26.82c-4.71,17.01-14.88,28.46-32.38,33.38c-21.42,6.02-43.23,9.5-65.32,11.5
		c-5.64,0.51-11.3,0.08-16.94-0.76c-11.66-1.74-20.37-6.91-25.49-18.22c-5.56-12.27-12.13-24.08-18.33-36.06
		c-3.66-7.07-13.19-11.62-20.94-10.05c-14.35,2.92-28.71,5.83-43.03,8.89c-5.47,1.17-10.4,0.95-15.15-2.59
		c-4.98-3.7-7.27-2.41-7.67,4.07c-0.92,14.66,2.2,28.81,5.64,42.91c0.9,3.71,2.38,7.29,2.52,11.18c0.2,5.53-2.13,9.19-6.63,10.37
		c-4.31,1.13-8.6-1.04-10.69-6.09c-5.31-12.83-8.51-26.26-10.71-39.94C51.3,321.06,50.84,316.59,51.3,312.07z M220.03,346.12
		c17.06-1.41,37.08-6.35,57.28-10.46c12.22-2.48,19.62-9.73,23.49-20.66c6.2-17.47,9.78-35.6,10.22-54.17
		c0.26-10.86-5.76-17.55-16.51-19.98c-7.47-1.69-14.9-0.73-22.34,0.11c-27.78,3.16-55.46,6.88-82.29,15.16
		c-4.44,1.37-8.93,2.68-12.95,5.12c-7.12,4.33-9.58,10.35-7.02,18.31c5.2,16.14,10.71,32.18,17.22,47.84
		C193.31,342.27,200.43,346.71,220.03,346.12z M471.94,247.45c-0.39-7.91-0.61-15.08-1.14-22.22c-0.74-9.8-5.43-14.48-15.18-15.14
		c-3.64-0.25-7.36-0.27-10.98,0.18c-15.03,1.87-30.04,3.87-44.91,6.8c-12.77,2.52-25.29,5.97-36.98,11.78
		c-10.32,5.13-13.96,13.25-9.87,22.98c7.04,16.72,14.92,33.02,24.91,48.28c6.95,10.62,16.24,14.6,28.56,12.77
		c14.68-2.18,29.08-5.38,43.25-9.85c11.6-3.66,17.79-11.55,20.4-23C472.53,269.01,471.95,257.84,471.94,247.45z"/>
</g>
</svg>
